<svg width="320" height="192" viewBox="0 0 320 192" fill="none" xmlns="http://www.w3.org/2000/svg">
<g clip-path="url(#clip0)">
<path d="M244.999 189.045C240.903 185.585 238.414 180.12 239.067 174.799C239.719 169.478 243.761 164.587 249.005 163.457C254.248 162.327 260.224 165.455 261.817 170.574C262.693 160.705 263.703 150.422 268.953 142.018C273.707 134.408 281.94 128.963 290.864 127.989C299.787 127.014 309.182 130.694 314.747 137.733C320.312 144.772 321.675 155.005 317.777 163.086C314.906 169.04 309.616 173.47 304.073 177.074C286.164 188.624 264.683 193.32 243.585 190.3L244.999 189.045Z" fill="#F2F2F2"/>
<path d="M305.923 130.898C298.56 136.891 291.805 143.595 285.757 150.911C276.291 162.322 268.631 175.115 263.043 188.846C262.634 189.848 264.262 190.284 264.666 189.293C273.808 166.978 288.402 147.31 307.113 132.087C307.953 131.403 306.756 130.219 305.923 130.898Z" fill="white"/>
<path d="M103.013 188.105C108.64 183.353 112.058 175.846 111.162 168.538C110.265 161.23 104.714 154.512 97.5123 152.96C90.3109 151.408 82.1017 155.704 79.9144 162.734C78.7106 149.179 77.3235 135.056 70.1127 123.513C63.5835 113.061 52.2749 105.582 40.0188 104.244C27.7628 102.906 14.8587 107.959 7.2151 117.627C-0.428541 127.296 -2.30005 141.351 3.05335 152.451C6.99702 160.627 14.2627 166.713 21.8752 171.663C46.1619 187.458 76.2896 194.045 104.957 189.829" fill="#F2F2F2"/>
<path d="M19.3349 108.239C29.4477 116.472 38.7251 125.679 47.0329 135.728C55.342 145.767 62.6573 156.587 68.876 168.037C72.352 174.46 75.4746 181.068 78.2298 187.832C78.7915 189.207 76.5562 189.806 76.0007 188.446C71.1206 176.522 65.0829 165.105 57.9744 154.359C50.9003 143.651 42.8037 133.654 33.7983 124.509C28.7048 119.339 23.3307 114.453 17.7004 109.873C16.5463 108.934 18.1904 107.308 19.3349 108.239L19.3349 108.239Z" fill="white"/>
<path d="M229.701 190.789H95.4482V53.1194C95.4482 23.8292 119.291 0 148.598 0H176.552C205.858 0 229.701 23.8292 229.701 53.1194V190.789Z" fill="#F2F2F2"/>
<path d="M201.747 190.789H95.4483V53.1194C95.419 41.8961 98.9749 30.9564 105.598 21.8932C105.843 21.5606 106.086 21.2323 106.337 20.9076C109.541 16.708 113.354 13.0096 117.649 9.93426C117.892 9.75781 118.135 9.58442 118.383 9.41103C121.977 6.92504 125.865 4.8928 129.959 3.36056C130.202 3.26848 130.449 3.17621 130.697 3.08772C134.399 1.7673 138.237 0.862815 142.139 0.390972C142.381 0.357943 142.629 0.332096 142.878 0.30625C146.68 -0.10013 150.516 -0.10013 154.319 0.30625C154.566 0.332096 154.815 0.357939 155.059 0.391326C158.961 0.863199 162.798 1.76757 166.499 3.08774C166.746 3.17623 166.994 3.26849 167.238 3.36075C171.28 4.87366 175.123 6.87558 178.679 9.32182C178.926 9.49145 179.173 9.66484 179.417 9.83823C181.825 11.556 184.086 13.4696 186.179 15.5597C187.857 17.2361 189.42 19.0231 190.859 20.9087C191.109 21.2323 191.353 21.5606 191.597 21.8927C198.22 30.956 201.776 41.8959 201.747 53.1194V190.789Z" fill="#CCCCCC"/>
<path d="M193.103 129.214C196.354 129.214 198.988 126.581 198.988 123.333C198.988 120.084 196.354 117.451 193.103 117.451C189.853 117.451 187.218 120.084 187.218 123.333C187.218 126.581 189.853 129.214 193.103 129.214Z" fill="#D52047"/>
<path d="M218.703 186.665H214.194L212.048 169.282L218.704 169.282L218.703 186.665Z" fill="#FFB8B8"/>
<path d="M210.973 185.378H219.669V190.85H205.497C205.497 190.131 205.639 189.42 205.914 188.756C206.189 188.092 206.592 187.489 207.101 186.98C207.609 186.472 208.213 186.069 208.877 185.794C209.542 185.519 210.254 185.378 210.973 185.378Z" fill="#2F2E41"/>
<path d="M241.14 186.665H236.631L234.485 169.282L241.141 169.282L241.14 186.665Z" fill="#FFB8B8"/>
<path d="M233.409 185.378H242.106V190.85H227.934C227.934 190.131 228.075 189.42 228.351 188.756C228.626 188.092 229.029 187.489 229.537 186.98C230.046 186.472 230.65 186.069 231.314 185.794C231.978 185.519 232.69 185.378 233.409 185.378Z" fill="#2F2E41"/>
<path d="M196.082 124.498C195.757 124.02 195.542 123.477 195.45 122.907C195.358 122.337 195.393 121.754 195.551 121.199C195.709 120.644 195.987 120.13 196.366 119.693C196.744 119.257 197.213 118.909 197.741 118.674L213.07 76.4479L220.613 80.5619L203.11 120.915C203.447 121.826 203.437 122.83 203.083 123.735C202.729 124.641 202.055 125.385 201.189 125.826C200.322 126.268 199.324 126.377 198.383 126.132C197.441 125.887 196.623 125.306 196.082 124.498Z" fill="#FFB8B8"/>
<path d="M238.836 132.432C238.335 132.145 237.903 131.752 237.571 131.28C237.238 130.807 237.013 130.268 236.912 129.7C236.81 129.131 236.835 128.548 236.984 127.99C237.132 127.432 237.401 126.914 237.772 126.471L233.024 81.803L241.607 82.1949L243.581 126.132C244.284 126.804 244.715 127.71 244.794 128.679C244.873 129.648 244.594 130.612 244.009 131.388C243.424 132.165 242.574 132.7 241.621 132.893C240.668 133.085 239.677 132.921 238.836 132.432Z" fill="#FFB8B8"/>
<path d="M225.142 68.6264C230.132 68.6264 234.176 64.5841 234.176 59.5976C234.176 54.6111 230.132 50.5687 225.142 50.5687C220.153 50.5687 216.108 54.6111 216.108 59.5976C216.108 64.5841 220.153 68.6264 225.142 68.6264Z" fill="#FFB8B8"/>
<path d="M238.779 122.273H211.543L211.576 122.062C211.625 121.745 216.43 90.2859 212.886 79.994C212.53 78.9826 212.562 77.8755 212.974 76.8857C213.386 75.896 214.15 75.0936 215.118 74.633H215.118C220.184 72.2489 229.907 69.3132 238.114 76.4376C239.322 77.5033 240.265 78.8351 240.869 80.3278C241.473 81.8205 241.721 83.4331 241.594 85.0382L238.779 122.273Z" fill="#D52047"/>
<path d="M216.774 94.9351L204.512 92.4489L210.26 78.8364C210.604 77.518 211.457 76.3897 212.632 75.6991C213.807 75.0085 215.209 74.8119 216.529 75.1525C217.849 75.4931 218.98 76.343 219.673 77.5159C220.367 78.6887 220.567 80.0887 220.23 81.4088L216.774 94.9351Z" fill="#D52047"/>
<path d="M232.478 99.5513L231.741 82.6629C231.182 79.4881 233.001 76.4869 235.797 75.9964C238.595 75.5076 241.326 77.7095 241.888 80.9076L244.658 96.6882L232.478 99.5513Z" fill="#D52047"/>
<path d="M237.873 120.252C242.255 136.932 242.733 158.141 241.551 181.275L235.666 180.539L224.999 136.426L219.114 181.275L212.493 180.907C210.515 156.634 208.59 135.796 211.758 122.09L237.873 120.252Z" fill="#2F2E41"/>
<path d="M231.095 66.5754C229.41 68.3696 226.28 67.4064 226.06 64.9553C226.043 64.7649 226.044 64.5734 226.064 64.3834C226.177 63.2976 226.805 62.3119 226.654 61.1655C226.62 60.8802 226.514 60.6083 226.345 60.3755C225.002 58.5782 221.85 61.1794 220.582 59.5523C219.805 58.5546 220.719 56.9838 220.122 55.8687C219.335 54.397 217.004 55.123 215.542 54.317C213.915 53.4202 214.012 50.9257 215.083 49.4084C216.389 47.558 218.679 46.5707 220.94 46.4284C223.201 46.2861 225.447 46.897 227.558 47.7192C229.956 48.6534 232.335 49.9445 233.811 52.0524C235.606 54.6158 235.779 58.062 234.881 61.0594C234.335 62.8828 232.471 65.1102 231.095 66.5754Z" fill="#2F2E41"/>
<path d="M308.959 191.025H37.4023C37.2863 191.025 37.1753 190.979 37.0934 190.897C37.0115 190.815 36.9656 190.704 36.9656 190.588C36.9656 190.472 37.0115 190.361 37.0934 190.279C37.1753 190.197 37.2863 190.15 37.4023 190.15H308.959C309.075 190.15 309.186 190.197 309.268 190.279C309.349 190.361 309.395 190.472 309.395 190.588C309.395 190.704 309.349 190.815 309.268 190.897C309.186 190.979 309.075 191.025 308.959 191.025Z" fill="#3F3D56"/>
<path d="M172.506 150.903H124.69C124.06 150.907 123.455 150.66 123.006 150.218C122.558 149.776 122.304 149.174 122.299 148.545V41.8762C122.304 41.2468 122.558 40.6451 123.006 40.203C123.455 39.7608 124.06 39.5145 124.69 39.5179H172.506C173.136 39.5145 173.741 39.7608 174.189 40.203C174.637 40.6451 174.892 41.2468 174.897 41.8762V148.545C174.892 149.174 174.637 149.776 174.189 150.218C173.741 150.66 173.136 150.907 172.506 150.903Z" fill="white"/>
<path d="M174.897 74.0326H122.299V74.7678H174.897V74.0326Z" fill="#CCCCCC"/>
<path d="M175.081 115.98H122.483V116.716H175.081V115.98Z" fill="#CCCCCC"/>
<path d="M139.586 39.5179H138.851V151.271H139.586V39.5179Z" fill="#CCCCCC"/>
<path d="M157.977 39.5179H157.241V151.271H157.977V39.5179Z" fill="#CCCCCC"/>
</g>
<defs>
<clipPath id="clip0">
<rect width="320" height="191.207" fill="white"/>
</clipPath>
</defs>
</svg>
